<svg xmlns="http://www.w3.org/2000/svg" version="1.1" xmlns:xlink="http://www.w3.org/1999/xlink" xmlns:svgjs="http://svgjs.dev/svgjs" width="100%" height="100%" viewBox="0 0 1000 600"><rect width="1000" height="600" x="0" y="0" fill="#ffe8f5"/><g><circle r="166.66666666666666" cx="431.9219767252604" cy="454.1441359971268" fill="#8000ff" transform="matrix(0.47124421634743696,0,0,0.4712442163474369,0,85.98719860706235)"/><path d="M427.09700092541823 529.1441540546753L427.09700092541823 529.1441540546753Q417.1064620960243 529.1441540546753 409.4432646984778 527.1006347486627Q401.78006730093125 525.0571154426505 396.67126903590025 521.1687523187102Q391.56247077086925 517.2803891947699 389.0080716383537 511.9729154416544Q386.4536725058382 506.6654416885388 386.4536725058382 500.33620828241703L386.4536725058382 500.33620828241703Q386.4536725058382 496.24916967039223 388.1849874734321 493.18389071137364Q389.9163024410259 490.11861175235504 393.18025688812907 488.3872967847612Q396.4442113352322 486.62759960458385 401.15565862409414 486.62759960458385L401.15565862409414 486.62759960458385Q401.5530096002632 495.0287345293015 404.41961307119726 502.46487422618Q407.28621654213134 509.929396135642 413.218098972084 514.5273145741698Q419.1499814020367 519.1252330126977 428.7431692552616 519.1252330126977L428.7431692552616 519.1252330126977Q442.4233957205113 519.1252330126977 450.20012196839184 512.4837952681575Q457.97684821627234 505.8423575236171 457.97684821627234 493.38256619945815L457.97684821627234 493.38256619945815Q457.97684821627234 485.83289765224566 454.99671589500423 480.6105705368807Q452.04496578631966 475.3882434215156 445.2048525536948 470.90385383332176Q438.3363571084865 466.41946424512787 426.3022989730801 461.5093414681814L426.3022989730801 461.5093414681814Q413.61544994825306 456.2018677150658 405.24269723611894 450.0713097970286Q396.86994452398477 443.9407518789914 392.78290591196 435.6531458046078Q388.6958672999352 427.36553973022416 388.6958672999352 416.12618354715596L388.6958672999352 416.12618354715596Q388.6958672999352 404.48947638791867 394.5142208795538 396.20187031353504Q400.33257445917246 387.9426464517349 410.465024351484 383.54340350129155Q420.569092031212 379.14416055084814 433.4546165441235 379.14416055084814L433.4546165441235 379.14416055084814Q445.7157323801979 379.14416055084814 454.1736317300826 382.4081149979513Q462.65991329255075 385.7004516576379 467.17268509332814 390.89439656041947Q471.65707468152203 396.1167236757845 471.65707468152203 402.0486061057372L471.65707468152203 402.0486061057372Q471.65707468152203 408.57651499994347 467.2578317310787 411.9539982973806Q462.8585887806353 415.3314815948178 455.50759572150736 415.3314815948178L455.50759572150736 415.3314815948178Q455.50759572150736 408.9738659761125 453.3789297777444 403.0703657587434Q451.221881621398 397.1384833287907 446.226612206701 393.2501202048504Q441.2029605794205 389.36175708091014 432.6315323792018 389.36175708091014L432.6315323792018 389.36175708091014Q420.7677675192965 389.36175708091014 414.2398586250902 395.6909904870319Q407.6835675183004 402.0486061057372 407.6835675183004 412.66355361196827L407.6835675183004 412.66355361196827Q407.6835675183004 420.83763083601787 410.6636998395685 426.457308927552Q413.61544994825306 432.0769870190861 420.569092031212 436.47622996952947Q427.5227341141708 440.8754729199728 439.3581167614926 445.7572134843358L439.3581167614926 445.7572134843358Q451.42055710948256 450.6673362612823 459.9068386719507 456.4856898409009Q468.3931202344189 462.33242563310307 472.87750982261275 469.88209418031556Q477.39028162339014 477.43176272752805 477.39028162339014 488.07509244634264L477.39028162339014 488.07509244634264Q477.39028162339014 501.1592924473387 471.25972370535294 510.2416004740605Q465.12916578731574 519.3239085007823 453.7762807539135 524.2340312777287Q442.4233957205113 529.1441540546753 427.09700092541823 529.1441540546753Z " fill="#ffe8f5" transform="matrix(0.47124421634743696,0,0,0.4712442163474369,0,85.98719860706235)"/><path d="M720.6665632297131 529.1441542165328L720.6665632297131 529.1441542165328Q711.1427541253026 529.1441542165328 703.837559641806 527.1961023542669Q696.5323651583094 525.2480504920012 691.662235502645 521.5413406985233Q686.7921058469806 517.8346309050453 684.3570410191484 512.7751073183274Q681.9219761913162 507.71558373160934 681.9219761913162 501.6820342137584L681.9219761913162 501.6820342137584Q681.9219761913162 497.78593048922687 683.572409019069 494.86385269582826Q685.2228418468221 491.9417749024296 688.3343135712744 490.29134207467666Q691.4457852957266 488.6138529710589 695.9371270892838 488.6138529710589L695.9371270892838 488.6138529710589Q696.315914951391 496.6225106270404 699.048598813736 503.71125490361857Q701.781282676081 510.8270554560616 707.4360443318247 515.2101721461595Q713.0908059875684 519.5932888362574 722.2358272298716 519.5932888362574L722.2358272298716 519.5932888362574Q735.2769521967064 519.5932888362574 742.6903717836622 513.2621202838939Q750.103791370618 506.93095173153006 750.103791370618 495.05324662688184L750.103791370618 495.05324662688184Q750.103791370618 487.85627724684446 747.2628824048137 482.8779224877208Q744.4490297148743 477.8995677285972 737.9284672314569 473.62467614195845Q731.3808484721748 469.3497845553197 719.9089875054985 464.6690488307089L719.9089875054985 464.6690488307089Q707.814832193932 459.60952524399084 699.8332308138154 453.76536965719356Q691.8516294336986 447.9212140703963 687.9555257091671 440.020781517874Q684.0594219846355 432.12034896535175 684.0594219846355 421.40606372289L684.0594219846355 421.40606372289Q684.0594219846355 410.31299061832107 689.6059585369201 402.4125580657988Q695.1524950892044 394.53918178914137 704.8115855729388 390.345459030097Q714.4436197808085 386.15173627105264 726.7271690234288 386.15173627105264L726.7271690234288 386.15173627105264Q738.4154801970233 386.15173627105264 746.4782504047344 389.2632079955049Q754.5680768883103 392.401735995822 758.8700247508139 397.35303447908075Q763.1449163374526 402.3313892382044 763.1449163374526 407.9861508939481L763.1449163374526 407.9861508939481Q763.1449163374526 414.2090943428526 758.9511935784083 417.4287911707641Q754.7574708193639 420.64848799867553 747.7498953703802 420.64848799867553L747.7498953703802 420.64848799867553Q747.7498953703802 414.58788220495984 745.72067468052 408.96017682508096Q743.664397714795 403.30541516933727 738.9024931625897 399.59870537585937Q734.1135323345197 395.89199558238147 725.9425370233495 395.89199558238147L725.9425370233495 395.89199558238147Q714.6330137118621 395.89199558238147 708.4100702629576 401.9255451002324Q702.1600705381883 407.9861508939481 702.1600705381883 418.10519806738415L702.1600705381883 418.10519806738415Q702.1600705381883 425.89740551644724 705.0009795039925 431.25454813767806Q707.814832193932 436.61169075890894 714.4436197808085 440.80541351795324Q721.0724073676851 444.9991362769976 732.3548744033076 449.6528157257436L732.3548744033076 449.6528157257436Q743.8537916458486 454.3335514503544 751.9436181294245 459.88008800263884Q760.0334446130004 465.45368083078813 764.3083361996391 472.6506502108256Q768.6102840621427 479.84761959086296 768.6102840621427 489.99372304016384L768.6102840621427 489.99372304016384Q768.6102840621427 502.4666662138377 762.7661284753455 511.1246744905744Q756.9219728885481 519.7826827673111 746.0994625426272 524.4634184919219Q735.2769521967064 529.1441542165328 720.6665632297131 529.1441542165328ZM825.2931819989035 529.1441542165328L825.2931819989035 529.1441542165328Q810.4933991008567 529.1441542165328 803.7563864105209 522.4341978020618Q797.0464299960499 515.697185111726 797.0464299960499 498.9493503514134L797.0464299960499 498.9493503514134L797.0464299960499 433.87900689656385L782.2466470980031 433.87900689656385L782.2466470980031 426.0867994475008Q785.7369066845625 426.0867994475008 790.0388545470661 424.6257605508015Q794.3137461337049 423.16472165410215 797.4252178581571 419.8638559985963L797.4252178581571 419.8638559985963Q800.7531397895278 416.346540136172 802.8905855828472 411.28701654945394Q805.0280313761666 406.22749296273594 806.3808451694067 398.8140733757801L806.3808451694067 398.8140733757801L815.3635287565211 398.8140733757801L815.3635287565211 422.7859337919949L840.8775968970295 422.7859337919949L840.8775968970295 433.87900689656385L815.3635287565211 433.87900689656385L815.3635287565211 499.544588420439Q815.3635287565211 509.4742416628215 819.4490264121063 514.1549773874323Q823.5345240676913 518.8086568361782 830.1633116545679 518.8086568361782L830.1633116545679 518.8086568361782Q833.6535712411275 518.8086568361782 836.575649034526 518.429868974071Q839.4977268279247 518.0510811119639 842.6362548282417 517.4558430429381L842.6362548282417 517.4558430429381L842.6362548282417 526.0326824920805Q840.0929648969503 527.1961023542669 835.0334413102323 528.1701282853999Q829.9739177235143 529.1441542165328 825.2931819989035 529.1441542165328ZM900.2931786961354 529.1441542165328L900.2931786961354 529.1441542165328Q884.898157729063 529.1441542165328 876.5107122109742 520.0803018018239Q868.1503229687504 511.0164493871152 868.1503229687504 490.9677489712967L868.1503229687504 490.9677489712967L868.1503229687504 444.2145042769184Q868.1503229687504 438.37034869012103 865.9046520719718 435.52943972431683Q863.6589811751932 432.7155870343774 860.0604964851744 431.8497862067037Q856.4620117951557 430.95692910316524 852.1600639326522 430.95692910316524L852.1600639326522 430.95692910316524L851.5918821394913 430.95692910316524L851.5918821394913 422.7859337919949L886.4674217292214 422.7859337919949L886.4674217292214 489.99372304016384Q886.4674217292214 498.35411228238775 888.307248488028 504.41471807610344Q890.1470752468346 510.44826759395437 894.6384170403918 513.5597393184066Q899.1297588339489 516.6712110428589 906.921966283012 516.6712110428589L906.921966283012 516.6712110428589Q915.4717494562896 516.6712110428589 920.9371171809795 512.693938490733Q926.4024849056697 508.68960966274216 928.9187185610963 501.57380911029924Q931.4620084923877 494.4580085578562 931.4620084923877 485.12359338449943L931.4620084923877 485.12359338449943L931.4620084923877 444.9991362769976Q931.4620084923877 438.7491365522283 929.3245626990683 435.82705875882965Q927.1600606298841 432.904980965431 923.5615759398654 431.9309550342981Q919.9630912498467 430.95692910316524 915.4717494562896 430.95692910316524L915.4717494562896 430.95692910316524L914.9035676631287 430.95692910316524L914.9035676631287 422.7859337919949L949.7791072528588 422.7859337919949L949.7791072528588 505.9569258003972Q949.7791072528588 511.6116874561408 951.9977218737725 514.4255401460803Q954.2433927705512 517.2664491118845 957.8418774605699 518.1322499395583Q961.4674184264534 519.0251070430966 965.7423100130922 519.0251070430966L965.7423100130922 519.0251070430966L966.3375480821179 519.0251070430966L966.3375480821179 527.1961023542669L935.3581122169192 527.1961023542669L932.8148222856278 511.42229352508724L931.840796354495 511.42229352508724Q925.807246836644 522.3259726986025 917.8256454565274 525.7350634575677Q909.8440440764107 529.1441542165328 900.2931786961354 529.1441542165328ZM1021.2617880876664 529.1441542165328L1021.2617880876664 529.1441542165328Q1001.9706633960624 529.1441542165328 991.7433911191671 516.1841980772924Q981.5161188422719 503.22424193805216 981.5161188422719 475.19394014211696L981.5161188422719 475.19394014211696Q981.5161188422719 446.94718813926335 991.7433911191671 433.87900689656385Q1001.9706633960624 420.8378819297292 1021.2617880876664 420.8378819297292L1021.2617880876664 420.8378819297292Q1032.5713113991537 420.8378819297292 1039.660055675732 425.59978648193436Q1046.7758562281751 430.38874731000436 1051.0778040906785 437.96450455214904L1051.0778040906785 437.96450455214904L1052.2412239528653 437.96450455214904Q1051.6459858838393 433.0943748964846 1051.3483668493268 427.1690504820929Q1051.0778040906785 421.2166697918364 1051.0778040906785 416.5359340672256L1051.0778040906785 416.5359340672256L1051.0778040906785 400.5727313069923Q1051.0778040906785 394.72857572019495 1048.8321331939 391.9147230302555Q1046.5864622971214 389.0738140644513 1042.9879776071027 388.2080132367776Q1039.389492917084 387.31515613323916 1035.0875450545805 387.31515613323916L1035.0875450545805 387.31515613323916L1033.5453373302867 387.31515613323916L1033.5453373302867 379.14416082206884L1069.367846575285 379.14416082206884L1069.367846575285 505.76753186934354Q1069.367846575285 511.42229352508724 1071.6135174720634 514.3443713184859Q1073.8591883688423 517.2664491118845 1077.4576730588608 518.1322499395583Q1081.0561577488795 519.0251070430966 1085.358105611383 519.0251070430966L1085.358105611383 519.0251070430966L1086.9003133356769 519.0251070430966L1086.9003133356769 527.1961023542669L1053.9998818840772 527.1961023542669L1051.8353798148933 509.6636355938751L1051.0778040906785 509.6636355938751Q1046.7758562281751 518.6192629051247 1039.7682807791912 523.8952366987611Q1032.7607053302074 529.1441542165328 1021.2617880876664 529.1441542165328ZM1024.5626537431722 516.6712110428589L1024.5626537431722 516.6712110428589Q1039.7682807791912 516.6712110428589 1045.4230424349348 506.44393876596365Q1051.0778040906785 496.21666648906836 1051.0778040906785 475.19394014211696L1051.0778040906785 475.19394014211696Q1051.0778040906785 454.9287895193801 1045.4230424349348 444.10627917345914Q1039.7682807791912 433.31082510340303 1024.3732598121187 433.31082510340303L1024.3732598121187 433.31082510340303Q1011.5215287763377 433.31082510340303 1005.9749922240532 444.10627917345914Q1000.4284556717687 454.9287895193801 1000.4284556717687 475.3833340731706L1000.4284556717687 475.3833340731706Q1000.4284556717687 496.0272725580148 1005.9749922240532 506.36276993836924Q1011.5215287763377 516.6712110428589 1024.5626537431722 516.6712110428589ZM1150.211998859314 527.1961023542669L1094.9089709916584 527.1961023542669L1094.9089709916584 519.0251070430966L1097.425204647085 519.0251070430966Q1101.7271525095884 519.0251070430966 1105.3256371996072 518.1322499395583Q1108.924121889626 517.2664491118845 1111.1697927864045 514.4255401460803Q1113.4154636831831 511.6116874561408 1113.4154636831831 505.9569258003972L1113.4154636831831 505.9569258003972L1113.4154636831831 444.2145042769184Q1113.4154636831831 438.37034869012103 1111.1697927864045 435.52943972431683Q1108.924121889626 432.7155870343774 1105.3256371996072 431.8497862067037Q1101.7271525095884 430.95692910316524 1097.425204647085 430.95692910316524L1097.425204647085 430.95692910316524L1096.857022853924 430.95692910316524L1096.857022853924 422.7859337919949L1131.7055061677893 422.7859337919949L1131.7055061677893 504.9828998692643Q1131.7055061677893 511.0164493871152 1133.8700082369737 514.0467522839731Q1136.007454030293 517.0770551808309 1139.7141638237708 518.0510811119639Q1143.393817341384 519.0251070430966 1147.6957652038877 519.0251070430966L1147.6957652038877 519.0251070430966L1150.211998859314 519.0251070430966L1150.211998859314 527.1961023542669ZM1121.775852925407 403.30541516933727L1121.775852925407 403.30541516933727Q1117.0951172007963 403.30541516933727 1113.9024766487496 400.5727313069923Q1110.682779820838 397.8400474446472 1110.682779820838 391.21125985777064L1110.682779820838 391.21125985777064Q1110.682779820838 384.3930783398405 1113.9024766487496 381.7686195809547Q1117.0951172007963 379.14416082206884 1121.775852925407 379.14416082206884L1121.775852925407 379.14416082206884Q1126.2671947189642 379.14416082206884 1129.56806037447 381.7686195809547Q1132.8959823058408 384.3930783398405 1132.8959823058408 391.21125985777064L1132.8959823058408 391.21125985777064Q1132.8959823058408 397.8400474446472 1129.56806037447 400.5727313069923Q1126.2671947189642 403.30541516933727 1121.775852925407 403.30541516933727ZM1208.653554727287 529.1441542165328L1208.653554727287 529.1441542165328Q1187.6308283803357 529.1441542165328 1175.5366730687692 515.697185111726Q1163.4695740330671 502.2502160069193 1163.4695740330671 474.7880960041449L1163.4695740330671 474.7880960041449Q1163.4695740330671 447.5153699324242 1175.0496601032028 434.17662593107667Q1186.656802449203 420.8378819297292 1209.248792796313 420.8378819297292L1209.248792796313 420.8378819297292Q1230.298575419129 420.8378819297292 1242.3656744548307 434.17662593107667Q1254.4327734905326 447.5153699324242 1254.4327734905326 474.7880960041449L1254.4327734905326 474.7880960041449Q1254.4327734905326 502.2502160069193 1242.8526874203972 515.697185111726Q1231.272601350262 529.1441542165328 1208.653554727287 529.1441542165328ZM1209.059398865259 519.0251070430966L1209.059398865259 519.0251070430966Q1218.7996581765879 519.0251070430966 1224.6438137633854 514.0467522839731Q1230.4879693501825 509.06839752484944 1233.0042030056093 499.13874428246703Q1235.5474929369007 489.20909104008456 1235.5474929369007 474.7880960041449L1235.5474929369007 474.7880960041449Q1235.5474929369007 452.9807376571143 1229.5139434190496 442.077058483599Q1223.4803939011988 431.1463230342188 1208.8700049342056 431.1463230342188L1208.8700049342056 431.1463230342188Q1194.2596159672123 431.1463230342188 1188.307235276956 442.077058483599Q1182.3548545866993 452.9807376571143 1182.3548545866993 474.7880960041449L1182.3548545866993 474.7880960041449Q1182.3548545866993 496.6225106270404 1188.415460380415 507.8238088350685Q1194.449009898266 519.0251070430966 1209.059398865259 519.0251070430966ZM1358.4641541906976 529.1441542165328L1358.4641541906976 529.1441542165328Q1348.9132888104223 529.1441542165328 1341.6080943269258 527.1961023542669Q1334.3028998434293 525.2480504920012 1329.4327701877646 521.5413406985233Q1324.5626405321 517.8346309050453 1322.127575704268 512.7751073183274Q1319.6925108764358 507.71558373160934 1319.6925108764358 501.6820342137584L1319.6925108764358 501.6820342137584Q1319.6925108764358 497.78593048922687 1321.3699999800533 494.86385269582826Q1323.0204328078066 491.9417749024296 1326.131904532259 490.29134207467666Q1329.2433762567111 488.6138529710589 1333.7347180502684 488.6138529710589L1333.7347180502684 488.6138529710589Q1334.1135059123753 496.6225106270404 1336.8461897747206 503.71125490361857Q1339.5788736370655 510.8270554560616 1345.2336352928091 515.2101721461595Q1350.8613406726881 519.5932888362574 1360.033418190856 519.5932888362574L1360.033418190856 519.5932888362574Q1373.0745431576906 519.5932888362574 1380.4879627446462 513.2621202838939Q1387.8743260557376 506.93095173153006 1387.8743260557376 495.05324662688184L1387.8743260557376 495.05324662688184Q1387.8743260557376 487.85627724684446 1385.0604733657979 482.8779224877208Q1382.2466206758586 477.8995677285972 1375.6990019165764 473.62467614195845Q1369.1784394331594 469.3497845553197 1357.6795221906182 464.6690488307089L1357.6795221906182 464.6690488307089Q1345.6124231549165 459.60952524399084 1337.6308217747996 453.76536965719356Q1329.6492203946832 447.9212140703963 1325.7531166701515 440.020781517874Q1321.8570129456198 432.12034896535175 1321.8570129456198 421.40606372289L1321.8570129456198 421.40606372289Q1321.8570129456198 410.31299061832107 1327.4035494979044 402.4125580657988Q1332.950086050189 394.53918178914137 1342.5821202580587 390.345459030097Q1352.241210741793 386.15173627105264 1364.4977037085482 386.15173627105264L1364.4977037085482 386.15173627105264Q1376.186014882143 386.15173627105264 1384.2758413657189 389.2632079955049Q1392.3656678492948 392.401735995822 1396.6405594359335 397.35303447908075Q1400.9425072984368 402.3313892382044 1400.9425072984368 407.9861508939481L1400.9425072984368 407.9861508939481Q1400.9425072984368 414.2090943428526 1396.748784539393 417.4287911707641Q1392.5550617803483 420.64848799867553 1385.5474863313643 420.64848799867553L1385.5474863313643 420.64848799867553Q1385.5474863313643 414.58788220495984 1383.4912093656394 408.96017682508096Q1381.4619886757796 403.30541516933727 1376.6730278477094 399.59870537585937Q1371.9111232955042 395.89199558238147 1363.7401279843339 395.89199558238147L1363.7401279843339 395.89199558238147Q1352.4306046728466 395.89199558238147 1346.207661223942 401.9255451002324Q1339.957661499173 407.9861508939481 1339.957661499173 418.10519806738415L1339.957661499173 418.10519806738415Q1339.957661499173 425.89740551644724 1342.7985704649768 431.25454813767806Q1345.6124231549165 436.61169075890894 1352.241210741793 440.80541351795324Q1358.8699983286697 444.9991362769976 1370.1524653642919 449.6528157257436L1370.1524653642919 449.6528157257436Q1381.651382606833 454.3335514503544 1389.741209090409 459.88008800263884Q1397.831035573985 465.45368083078813 1402.1059271606237 472.6506502108256Q1406.3808187472623 479.84761959086296 1406.3808187472623 489.99372304016384L1406.3808187472623 489.99372304016384Q1406.3808187472623 502.4666662138377 1400.5366631604652 511.1246744905744Q1394.6925075736676 519.7826827673111 1383.8970535036115 524.4634184919219Q1373.0745431576906 529.1441542165328 1358.4641541906976 529.1441542165328ZM1456.4619853730114 527.1961023542669L1430.9479172325027 441.2924264835197Q1429.5680471633978 437.2069288279346 1427.7282204045914 434.96125793115596Q1425.86133736992 432.7155870343774 1423.4262725420876 431.8497862067037Q1420.9912077142553 430.95692910316524 1417.095103989724 430.95692910316524L1417.095103989724 430.95692910316524L1416.5269221965632 430.95692910316524L1416.5269221965632 422.7859337919949L1464.6329806841818 422.7859337919949L1464.6329806841818 430.95692910316524L1462.116747028755 430.95692910316524Q1456.272591441958 430.95692910316524 1453.3505136485592 432.60736193091816Q1450.4284358551604 434.2848510345359 1450.4284358551604 439.1549806902003L1450.4284358551604 439.1549806902003Q1450.4284358551604 440.69718841449406 1450.9154488207269 443.05108441473186Q1451.4024617862933 445.3779241391049 1451.9706435794542 447.5153699324242L1451.9706435794542 447.5153699324242L1461.1427210976221 480.253463728835Q1462.495534890862 484.9341994534458 1463.767179856508 490.6701299367839Q1465.0388248221539 496.40606042012195 1466.2022446843403 501.57380911029924Q1467.3656645465267 506.7415578004764 1467.9609026155526 510.0424234559823L1467.9609026155526 510.0424234559823L1468.529084408713 510.0424234559823Q1469.124322477739 506.7415578004764 1470.3959674433845 502.06082207586564Q1471.6405561331653 497.3800863512549 1473.3180452367833 492.1311688334832Q1474.9684780645362 486.8822513157116 1476.51068578883 482.20151559110076L1476.51068578883 482.20151559110076L1496.7758364115666 423.3541155851558L1509.0593856541873 423.3541155851558L1528.5399042768445 481.03809572891424Q1529.7033241390313 484.5283553154738 1530.9749691046768 488.5326841434645Q1532.2466140703227 492.50995669559046 1533.4100339325091 496.6225106270404Q1534.5734537946955 500.70800828262554 1535.5474797258285 504.19826786918503Q1536.5215056569614 507.71558373160934 1536.9002935190683 510.0424234559823L1536.9002935190683 510.0424234559823L1537.4955315880943 510.0424234559823Q1538.4695575192272 505.1722938003179 1540.3093842780336 498.0835495237397Q1542.176267312705 490.9677489712967 1545.0983451061038 481.6062775220751L1545.0983451061038 481.6062775220751L1554.8386044174322 450.24805379476925Q1555.6232364175116 447.70476386347787 1556.110249383078 444.8909111735384Q1556.5972623486446 442.077058483599 1556.5972623486446 440.5077944834404L1556.5972623486446 440.5077944834404Q1556.5972623486446 435.4482708967224 1553.3775655207332 433.2025999999438Q1550.1578686928215 430.95692910316524 1543.7184750369988 430.95692910316524L1543.7184750369988 430.95692910316524L1542.3656612437585 430.95692910316524L1542.3656612437585 422.7859337919949L1584.0593823514191 422.7859337919949L1584.0593823514191 430.95692910316524L1581.5160924201273 430.95692910316524Q1577.8093826266495 430.95692910316524 1575.2931489712228 432.03918013775734Q1572.7498590399314 433.0943748964846 1570.801807177666 436.4222968278553Q1568.8537553154001 439.7231624833612 1566.9057034531343 446.1625561391841L1566.9057034531343 446.1625561391841L1541.770423174733 527.1961023542669L1526.186008276607 527.1961023542669L1499.508520273912 445.75671200121207L1471.857006340084 527.1961023542669L1456.4619853730114 527.1961023542669ZM1640.1470422191542 529.1441542165328L1640.1470422191542 529.1441542165328Q1618.9349219411492 529.1441542165328 1606.9489917330416 515.1290033185651Q1594.9630615249343 501.0867961447328 1594.9630615249343 475.7621219352778L1594.9630615249343 475.7621219352778Q1594.9630615249343 448.4893958635571 1606.2725848364216 434.66363889664314Q1617.5550518720443 420.8378819297292 1638.1989903568883 420.8378819297292L1638.1989903568883 420.8378819297292Q1657.111327186385 420.8378819297292 1667.9067812564413 432.52619310332375Q1678.729291602362 444.2145042769184 1678.729291602362 467.40173269305393L1678.729291602362 467.40173269305393L1678.729291602362 476.3573600043035L1613.848342078566 476.3573600043035Q1614.2541862165385 497.5965365581733 1621.559380700035 507.2285707660429Q1628.8645751835315 516.8606049739126 1642.879726081499 516.8606049739126L1642.879726081499 516.8606049739126Q1653.0258295308 516.8606049739126 1660.1145738073783 512.693938490733Q1667.2303743598213 508.50021573168857 1670.7476902222456 503.22424193805216L1670.7476902222456 503.22424193805216Q1672.1005040154855 503.8194800070778 1673.263923877672 505.57813793828996Q1674.4544000157234 507.33679586950205 1674.4544000157234 509.85302952492873L1674.4544000157234 509.85302952492873Q1674.4544000157234 513.7491332494603 1670.7476902222456 518.2404750430173Q1667.0409804287674 522.7047605607098 1659.438166910758 525.9244573886212Q1651.8353533927489 529.1441542165328 1640.1470422191542 529.1441542165328ZM1614.2541862165385 465.83246869289536L1659.059379048651 465.83246869289536Q1659.059379048651 450.24805379476925 1654.2704182205807 440.80541351795324Q1649.5085136683756 431.36277324113723 1637.820202494781 431.36277324113723L1637.820202494781 431.36277324113723Q1627.1059172523192 431.36277324113723 1621.153536562063 440.2101754489276Q1615.228212147671 449.0846339325828 1614.2541862165385 465.83246869289536L1614.2541862165385 465.83246869289536ZM1744.3678168503725 529.1441542165328L1744.3678168503725 529.1441542165328Q1723.1556965723676 529.1441542165328 1711.1697663642603 515.1290033185651Q1699.1838361561527 501.0867961447328 1699.1838361561527 475.7621219352778L1699.1838361561527 475.7621219352778Q1699.1838361561527 448.4893958635571 1710.49335946764 434.66363889664314Q1721.7758265032626 420.8378819297292 1742.419764988107 420.8378819297292L1742.419764988107 420.8378819297292Q1761.3321018176039 420.8378819297292 1772.1275558876596 432.52619310332375Q1782.9500662335804 444.2145042769184 1782.9500662335804 467.40173269305393L1782.9500662335804 467.40173269305393L1782.9500662335804 476.3573600043035L1718.0691167097848 476.3573600043035Q1718.4749608477568 497.5965365581733 1725.7801553312534 507.2285707660429Q1733.0853498147499 516.8606049739126 1747.1005007127173 516.8606049739126L1747.1005007127173 516.8606049739126Q1757.2466041620182 516.8606049739126 1764.3353484385966 512.693938490733Q1771.4511489910396 508.50021573168857 1774.968464853464 503.22424193805216L1774.968464853464 503.22424193805216Q1776.3212786467038 503.8194800070778 1777.4846985088907 505.57813793828996Q1778.6751746469417 507.33679586950205 1778.6751746469417 509.85302952492873L1778.6751746469417 509.85302952492873Q1778.6751746469417 513.7491332494603 1774.968464853464 518.2404750430173Q1771.2617550599857 522.7047605607098 1763.6589415419767 525.9244573886212Q1756.0561280239672 529.1441542165328 1744.3678168503725 529.1441542165328ZM1718.4749608477568 465.83246869289536L1763.2801536798693 465.83246869289536Q1763.2801536798693 450.24805379476925 1758.4911928517995 440.80541351795324Q1753.7292882995944 431.36277324113723 1742.0409771259997 431.36277324113723L1742.0409771259997 431.36277324113723Q1731.326691883538 431.36277324113723 1725.3743111932813 440.2101754489276Q1719.4489867788898 449.0846339325828 1718.4749608477568 465.83246869289536L1718.4749608477568 465.83246869289536ZM1839.4435702392875 529.1441542165328L1839.4435702392875 529.1441542165328Q1824.643787341241 529.1441542165328 1817.906774650905 522.4341978020618Q1811.196818236434 515.697185111726 1811.196818236434 498.9493503514134L1811.196818236434 498.9493503514134L1811.196818236434 433.87900689656385L1796.3970353383875 433.87900689656385L1796.3970353383875 426.0867994475008Q1799.8872949249471 426.0867994475008 1804.1892427874504 424.6257605508015Q1808.464134374089 423.16472165410215 1811.5756060985414 419.8638559985963L1811.5756060985414 419.8638559985963Q1814.9035280299122 416.346540136172 1817.0409738232315 411.28701654945394Q1819.1784196165509 406.22749296273594 1820.5582896856558 398.8140733757801L1820.5582896856558 398.8140733757801L1829.5139169969052 398.8140733757801L1829.5139169969052 422.7859337919949L1855.027985137414 422.7859337919949L1855.027985137414 433.87900689656385L1829.5139169969052 433.87900689656385L1829.5139169969052 499.544588420439Q1829.5139169969052 509.4742416628215 1833.5994146524904 514.1549773874323Q1837.6849123080756 518.8086568361782 1844.3136998949522 518.8086568361782L1844.3136998949522 518.8086568361782Q1847.8310157573765 518.8086568361782 1850.7530935507752 518.429868974071Q1853.675171344174 518.0510811119639 1856.7866430686258 517.4558430429381L1856.7866430686258 517.4558430429381L1856.7866430686258 526.0326824920805Q1854.2433531373345 527.1961023542669 1849.1838295506168 528.1701282853999Q1844.1243059638987 529.1441542165328 1839.4435702392875 529.1441542165328Z " fill="#8000ff" transform="matrix(0.47124421634743696,0,0,0.4712442163474369,0,85.98719860706235)"/></g></svg>