<svg xmlns="http://www.w3.org/2000/svg" version="1.1" xmlns:xlink="http://www.w3.org/1999/xlink" xmlns:svgjs="http://svgjs.dev/svgjs" width="100%" height="100%" viewBox="0 0 1000 600"><rect width="1000" height="600" x="0" y="0" fill="#ffe8f5"/><g><circle r="166.66666666666666" cx="369.7206675211588" cy="391.94299246440323" fill="#8000ff" transform="matrix(0.615599433937083,0,0,0.6155994339370832,0,58.72009691670307)"/><path d="M358.9557664718883 466.3171386636063L352.0789853230494 466.926473702111Q348.1037995956615 467.12958538161257 345.8985870753587 464.8373249986663Q343.72239050927044 462.54506461572 343.72239050927044 459.2082298810513L343.72239050927044 459.2082298810513Q343.72239050927044 456.6838418643889 345.28925203685395 454.5946931609442Q346.8561135644375 452.5055444574994 350.1929482991062 452.30243277799786L350.1929482991062 452.30243277799786L356.66350608894203 451.89620941899466Q367.31236128566724 451.0547467467739 372.97047235749676 444.4681251400801Q378.59956747511177 437.88150353338625 378.59956747511177 426.3911856644402L378.59956747511177 426.3911856644402L378.59956747511177 325.7058245400897Q378.59956747511177 321.32441545369863 380.8047799954145 319.11920293339585Q382.9809765615028 316.9430063673076 387.15927396839226 316.9430063673076L387.15927396839226 316.9430063673076Q391.3375713752817 316.9430063673076 393.5427838955845 319.11920293339585Q395.71898046167274 321.32441545369863 395.71898046167274 325.7058245400897L395.71898046167274 325.7058245400897L395.71898046167274 426.6233132981563Q395.71898046167274 438.51985452610546 391.5406830547833 447.19562483624406Q387.3623856478938 455.8713951463826 379.1218546509729 460.6590275917768Q370.881323654052 465.4756759913855 358.9557664718883 466.3171386636063L358.9557664718883 466.3171386636063Z " fill="#ffe8f5" transform="matrix(0.615599433937083,0,0,0.6155994339370832,0,58.72009691670307)"/><path d="M631.8884848545202 436.25697295853814L626.3955924982964 436.7436849394694Q623.2203762417452 436.90592226644645 621.458942405994 435.07495814770516Q619.7206853312396 433.24399402896387 619.7206853312396 430.5786665143405L619.7206853312396 430.5786665143405Q619.7206853312396 428.5622883076254 620.9722304250628 426.89356151586117Q622.2237755188859 425.2248347240969 624.8891030335093 425.0625973971199L624.8891030335093 425.0625973971199L630.057520735779 424.7381227431657Q638.5633920215772 424.0659966742607 643.0828604159386 418.8048719280041Q647.5791520493033 413.54374718174745 647.5791520493033 404.3657498270443L647.5791520493033 404.3657498270443L647.5791520493033 323.9423891684078Q647.5791520493033 320.4426982579023 649.3405858850543 318.6812644221512Q651.0788429598089 316.9430073473968 654.4162965433372 316.9430073473968L654.4162965433372 316.9430073473968Q657.7537501268656 316.9430073473968 659.5151839626168 318.6812644221512Q661.2534410373711 320.4426982579023 661.2534410373711 323.9423891684078L661.2534410373711 323.9423891684078L661.2534410373711 404.55116391501804Q661.2534410373711 414.0536359236754 657.9159874538427 420.98348746169626Q654.5785338703143 427.9133389997171 647.9963337472443 431.7375045641768Q641.4141336241744 435.5848468896331 631.8884848545202 436.25697295853814L631.8884848545202 436.25697295853814ZM717.1557885614724 437.25357368139737L717.1557885614724 437.25357368139737Q707.3288418988608 437.25357368139737 700.8857023417712 433.66117572690496Q694.4657395456784 430.06877777241255 691.2209930061368 422.9071586244244Q687.9530697055985 415.7223627154396 687.9530697055985 405.0378758959493L687.9530697055985 405.0378758959493L687.9530697055985 360.3299039332664Q687.9530697055985 356.80703626176415 689.7145035413497 355.1383094699999Q691.4759373771009 353.4695826782357 694.6279768726555 353.4695826782357L694.6279768726555 353.4695826782357Q697.9654304561839 353.4695826782357 699.7268642919349 355.1383094699999Q701.4882981276861 356.80703626176415 701.4882981276861 360.3299039332664L701.4882981276861 360.3299039332664L701.4882981276861 404.87563856897225Q701.4882981276861 415.56012538846255 705.8918827170638 420.82125013471915Q710.3186440674384 426.05919811997904 719.8442928370924 426.05919811997904L719.8442928370924 426.05919811997904Q730.1811282416319 426.05919811997904 736.6937980817117 419.05981629896803Q743.2064679217915 412.0604344779571 743.2064679217915 400.7038215895617L743.2064679217915 400.7038215895617L743.2064679217915 360.3299039332664Q743.2064679217915 356.80703626176415 744.9447249965459 355.1383094699999Q746.706158832297 353.4695826782357 750.0436124158255 353.4695826782357L750.0436124158255 353.4695826782357Q753.2188286723767 353.4695826782357 754.9570857471311 355.1383094699999Q756.7185195828822 356.80703626176415 756.7185195828822 360.3299039332664L756.7185195828822 360.3299039332664L756.7185195828822 429.90654044543544Q756.7185195828822 436.90592226644645 750.2058497428025 436.90592226644645L750.2058497428025 436.90592226644645Q747.0306334862512 436.90592226644645 745.2923764114968 435.07495814770516Q743.5309425757456 433.24399402896387 743.5309425757456 429.90654044543544L743.5309425757456 429.90654044543544L743.5309425757456 414.72576199258043L745.7095581094378 417.0666148532497Q742.3721045259094 426.89356151586117 734.7701269189835 432.08515597912765Q727.1681493120576 437.25357368139737 717.1557885614724 437.25357368139737ZM806.7803233358087 437.25357368139737L806.7803233358087 437.25357368139737Q794.7515843785084 437.25357368139737 788.4243286264024 429.90654044543544Q782.0738961132996 422.55950720947357 782.0738961132996 408.8852182214057L782.0738961132996 408.8852182214057L782.0738961132996 323.7801518414307Q782.0738961132996 320.4426982579023 783.7426229050639 318.6812644221512Q785.4113496968281 316.9430073473968 788.7488032803565 316.9430073473968L788.7488032803565 316.9430073473968Q791.9240195369078 316.9430073473968 793.7549836556492 318.6812644221512Q795.5859477743904 320.4426982579023 795.5859477743904 323.7801518414307L795.5859477743904 323.7801518414307L795.5859477743904 407.8886174985465Q795.5859477743904 416.8812007652759 799.1783457288828 421.3079621156504Q802.7707436833753 425.7347234660249 809.7701255043862 425.7347234660249L809.7701255043862 425.7347234660249Q811.2766149691735 425.7347234660249 812.4586297800064 425.57248613904784Q813.6174678298427 425.4102488120708 814.776305879679 425.4102488120708L814.776305879679 425.4102488120708Q816.6304467594169 425.2248347240969 817.3721031113121 426.24461220795285Q818.1137594632073 427.241212930812 818.1137594632073 430.2310150993896L818.1137594632073 430.2310150993896Q818.1137594632073 433.24399402896387 816.792684086394 434.750483493751Q815.4484319485839 436.25697295853814 812.4586297800064 436.7436849394694L812.4586297800064 436.7436849394694Q811.1143776421964 436.90592226644645 809.6078881774092 437.09133635442026Q808.1013987126221 437.25357368139737 806.7803233358087 437.25357368139737ZM838.1384809643779 436.5814476124923L838.1384809643779 436.5814476124923Q834.8010273808495 436.5814476124923 833.1323005890853 434.6577764497641Q831.463573797321 432.73410528703596 831.463573797321 429.2344143765304L831.463573797321 429.2344143765304L831.463573797321 360.9788532411747Q831.463573797321 357.47916233066917 833.1323005890853 355.6481982119279Q834.8010273808495 353.8172340931866 838.1384809643779 353.8172340931866L838.1384809643779 353.8172340931866Q841.3136972209293 353.8172340931866 843.1446613396706 355.6481982119279Q844.9988022194086 357.47916233066917 844.9988022194086 360.9788532411747L844.9988022194086 360.9788532411747L844.9988022194086 429.2344143765304Q844.9988022194086 432.73410528703596 843.2373683836574 434.6577764497641Q841.4759345479064 436.5814476124923 838.1384809643779 436.5814476124923ZM838.1384809643779 335.11358796882934L838.1384809643779 335.11358796882934Q833.9666639849673 335.11358796882934 831.6489878852949 332.865442152147Q829.3081350246256 330.61729633546463 829.3081350246256 326.7699540100083L829.3081350246256 326.7699540100083Q829.3081350246256 322.78355111857155 831.6489878852949 320.6976426288663Q833.9666639849673 318.611734139161 838.1384809643779 318.611734139161L838.1384809643779 318.611734139161Q842.4957120317623 318.611734139161 844.7438578484446 320.6976426288663Q846.992003665127 322.78355111857155 846.992003665127 326.7699540100083L846.992003665127 326.7699540100083Q846.992003665127 330.61729633546463 844.7438578484446 332.865442152147Q842.4957120317623 335.11358796882934 838.1384809643779 335.11358796882934ZM895.7095552802434 437.25357368139737L895.7095552802434 437.25357368139737Q887.3659213214223 437.25357368139737 880.7837211983523 433.98565038085906Q874.2015210752824 430.74090384131756 870.3541787498259 425.0625973971199Q866.5068364243696 419.3842909529222 866.5068364243696 412.3849091319112L866.5068364243696 412.3849091319112Q866.5068364243696 403.3691491041851 871.0958351017211 398.2007314019154Q875.6848337790727 393.03231369964567 886.2997903155729 390.85369816595346Q896.8915700910763 388.698259393258 915.2475648004827 388.698259393258L915.2475648004827 388.698259393258L922.7568353634216 388.698259393258L922.7568353634216 397.5286053330103L915.4098021274597 397.5286053330103Q901.897750466369 397.5286053330103 894.1335355324661 398.78015042683353Q886.369320598563 400.0316955206567 883.2868113859986 403.0446744502309Q880.2043021734341 406.03447661880847 880.2043021734341 411.5505457360291L880.2043021734341 411.5505457360291Q880.2043021734341 418.387690230063 884.9555381777628 422.7217445364506Q889.7067741820915 427.078975603835 897.8881708139355 427.078975603835L897.8881708139355 427.078975603835Q904.5630779809924 427.078975603835 909.6619654002719 423.90375934728365Q914.7376760585548 420.7285430907323 917.657947944142 415.2124739735117Q920.5782198297295 409.71958161728776 920.5782198297295 402.534785708303L920.5782198297295 402.534785708303L920.5782198297295 383.5066649299916Q920.5782198297295 373.16982952545214 916.406402850319 368.58083084810056Q912.2345858709084 363.991832170749 902.732113862251 363.991832170749L902.732113862251 363.991832170749Q896.8915700910763 363.991832170749 891.0510263199016 365.4983216355361Q885.2104825487268 367.00481110032325 878.697812708647 370.3422646838517L878.697812708647 370.3422646838517Q876.3569598479778 371.50110273368796 874.6882330562136 371.08392103574687Q873.0195062644493 370.66673933780584 872.0229055415903 369.32248719999575Q871.026304818731 368.0014118231824 870.8640674917539 366.2399779874313Q870.6786534037801 364.50172091267694 871.6057238436491 362.8329941209127Q872.5327942835181 361.1642673291485 874.5259957292365 360.1444898452926L874.5259957292365 360.1444898452926Q881.8730289651984 356.48256160781 889.0346481131864 354.81383481604576Q896.2194440221713 353.14510802428157 902.732113862251 353.14510802428157L902.732113862251 353.14510802428157Q913.2311865937677 353.14510802428157 920.0915078487983 356.5752686517969Q926.9286523428322 359.9822525183155 930.2661059263605 366.9121040563363Q933.603559509889 373.84195559435716 933.603559509889 384.68867974082457L933.603559509889 384.68867974082457L933.603559509889 429.90654044543544Q933.603559509889 433.24399402896387 932.004363001115 435.07495814770516Q930.4283432533377 436.90592226644645 927.4153643237635 436.90592226644645L927.4153643237635 436.90592226644645Q924.2633248282089 436.90592226644645 922.5945980364445 435.07495814770516Q920.9258712446804 433.24399402896387 920.9258712446804 429.90654044543544L920.9258712446804 429.90654044543544L920.9258712446804 416.8812007652759L922.4091839484709 416.8812007652759Q921.0881085716574 423.2316332783786 917.333473290188 427.7279249117433Q913.5788380087185 432.2473933061047 908.0627688914979 434.750483493751Q902.569876535274 437.25357368139737 895.7095552802434 437.25357368139737ZM1052.5698737060798 435.74708421661023L1011.0371179999479 435.74708421661023Q1007.3520130014687 435.74708421661023 1005.4283418387404 433.823413053882Q1003.5278474370091 431.89974189115384 1003.5278474370091 428.23781365367125L1003.5278474370091 428.23781365367125L1003.5278474370091 325.611115960172Q1003.5278474370091 321.94918772268943 1005.4283418387404 320.02551655996126Q1007.3520130014687 318.1018453972331 1011.0371179999479 318.1018453972331L1011.0371179999479 318.1018453972331L1050.5766722603612 318.1018453972331Q1062.7676485446386 318.1018453972331 1071.1808127864501 321.69424335172545Q1079.6171537892578 325.28664130621786 1084.1134454226226 332.12378580025177Q1088.632913816984 338.96093029428573 1088.632913816984 348.81105371789397L1088.632913816984 348.81105371789397Q1088.632913816984 359.8200151913384 1082.1897742598944 367.1670484273003Q1075.7698114638015 374.5140816632622 1064.7608499903572 376.8317577629347L1064.7608499903572 376.8317577629347L1064.7608499903572 374.5140816632622Q1077.2763009285886 375.9973943670526 1084.3683897935866 383.5066649299916Q1091.4604786585846 391.01593549293057 1091.4604786585846 403.3691491041851L1091.4604786585846 403.3691491041851Q1091.4604786585846 419.05981629896803 1081.285880581022 427.40345025778913Q1071.1112825034597 435.74708421661023 1052.5698737060798 435.74708421661023L1052.5698737060798 435.74708421661023ZM1016.8776617711227 381.6757008112503L1016.8776617711227 424.7381227431657L1051.2487983292663 424.7381227431657Q1064.5986126633798 424.7381227431657 1071.2735198304367 419.3842909529222Q1077.9484269974937 414.0536359236754 1077.9484269974937 403.206911777208L1077.9484269974937 403.206911777208Q1077.9484269974937 392.19795030376355 1071.2735198304367 386.93682555750695Q1064.5986126633798 381.6757008112503 1051.2487983292663 381.6757008112503L1051.2487983292663 381.6757008112503L1016.8776617711227 381.6757008112503ZM1016.8776617711227 329.1108068706775L1016.8776617711227 370.66673933780584L1048.583470814643 370.66673933780584Q1061.585633733806 370.66673933780584 1068.3532479448495 365.336084308559Q1075.0976853948964 359.9822525183155 1075.0976853948964 349.96989176773025L1075.0976853948964 349.96989176773025Q1075.0976853948964 339.6330563631908 1068.3532479448495 334.37193161693415Q1061.585633733806 329.1108068706775 1048.583470814643 329.1108068706775L1048.583470814643 329.1108068706775L1016.8776617711227 329.1108068706775ZM1140.0157929467236 437.25357368139737L1140.0157929467236 437.25357368139737Q1131.6721589879025 437.25357368139737 1125.0899588648326 433.98565038085906Q1118.484581980766 430.74090384131756 1114.6604164163064 425.0625973971199Q1110.81307409085 419.3842909529222 1110.81307409085 412.3849091319112L1110.81307409085 412.3849091319112Q1110.81307409085 403.3691491041851 1115.4020727682018 398.2007314019154Q1119.9910714455532 393.03231369964567 1130.582851221057 390.85369816595346Q1141.1978077575568 388.698259393258 1159.5538024669631 388.698259393258L1159.5538024669631 388.698259393258L1167.0630730299022 388.698259393258L1167.0630730299022 397.5286053330103L1159.7160397939401 397.5286053330103Q1146.2039881328496 397.5286053330103 1138.4397731989466 398.78015042683353Q1130.6755582650435 400.0316955206567 1127.5930490524793 403.0446744502309Q1124.5105398399146 406.03447661880847 1124.5105398399146 411.5505457360291L1124.5105398399146 411.5505457360291Q1124.5105398399146 418.387690230063 1129.2617758442434 422.7217445364506Q1134.0130118485718 427.078975603835 1142.1944084804159 427.078975603835L1142.1944084804159 427.078975603835Q1148.8693156474728 427.078975603835 1153.9450263057556 423.90375934728365Q1159.043913725035 420.7285430907323 1161.9641856106227 415.2124739735117Q1164.88445749621 409.71958161728776 1164.88445749621 402.534785708303L1164.88445749621 402.534785708303L1164.88445749621 383.5066649299916Q1164.88445749621 373.16982952545214 1160.7126405167996 368.58083084810056Q1156.5408235373889 363.991832170749 1147.0383515287317 363.991832170749L1147.0383515287317 363.991832170749Q1141.1978077575568 363.991832170749 1135.357263986382 365.4983216355361Q1129.5167202152074 367.00481110032325 1123.0040503751275 370.3422646838517L1123.0040503751275 370.3422646838517Q1120.6631975144583 371.50110273368796 1118.9944707226941 371.08392103574687Q1117.32574393093 370.66673933780584 1116.3291432080705 369.32248719999575Q1115.3325424852114 368.0014118231824 1115.1471283972378 366.2399779874313Q1114.9848910702608 364.50172091267694 1115.9119615101295 362.8329941209127Q1116.815855189002 361.1642673291485 1118.8322333957171 360.1444898452926L1118.8322333957171 360.1444898452926Q1126.1792666316787 356.48256160781 1133.3408857796671 354.81383481604576Q1140.5256816886517 353.14510802428157 1147.0383515287317 353.14510802428157L1147.0383515287317 353.14510802428157Q1157.537424260248 353.14510802428157 1164.3745687542819 356.5752686517969Q1171.2348900093125 359.9822525183155 1174.5723435928412 366.9121040563363Q1177.9097971763695 373.84195559435716 1177.9097971763695 384.68867974082457L1177.9097971763695 384.68867974082457L1177.9097971763695 429.90654044543544Q1177.9097971763695 433.24399402896387 1176.3106006675953 435.07495814770516Q1174.7345809198182 436.90592226644645 1171.721601990244 436.90592226644645L1171.721601990244 436.90592226644645Q1168.5463857336927 436.90592226644645 1166.877658941928 435.07495814770516Q1165.208932150164 433.24399402896387 1165.208932150164 429.90654044543544L1165.208932150164 429.90654044543544L1165.208932150164 416.8812007652759L1166.715421614951 416.8812007652759Q1165.394346238138 423.2316332783786 1161.6397109566683 427.7279249117433Q1157.885075675199 432.2473933061047 1152.3690065579785 434.750483493751Q1146.8529374407576 437.25357368139737 1140.0157929467236 437.25357368139737ZM1220.114678951406 466.9430045182024L1220.114678951406 466.9430045182024Q1217.6115887637598 466.9430045182024 1216.1050992989726 465.621929141389Q1214.6217865951821 464.2776770035789 1214.3668422242185 462.0295311868966Q1214.1118978532545 459.78138537021425 1215.1084985761136 457.440532509545L1215.1084985761136 457.440532509545L1226.627348791486 431.5752672371997L1226.627348791486 437.4158110083744L1194.5970650940117 362.99523144788975Q1193.577287610156 360.49214126024344 1193.9249390251066 358.3135257265513Q1194.2494136790606 356.15808695385584 1195.9181404708252 354.81383481604576Q1197.5868672625893 353.4695826782357 1200.5998461921636 353.4695826782357L1200.5998461921636 353.4695826782357Q1203.2651737067868 353.4695826782357 1204.771663171574 354.6515974890687Q1206.278152636361 355.8104355389049 1207.4369906861975 358.82341446847926L1207.4369906861975 358.82341446847926L1234.80874542333 425.896960793002L1230.2892770289686 425.896960793002L1258.0086831810518 358.82341446847926Q1259.3297585578653 355.8104355389049 1260.8362480226524 354.6515974890687Q1262.3427374874395 353.4695826782357 1265.1703023290397 353.4695826782357L1265.1703023290397 353.4695826782357Q1267.8356298436634 353.4695826782357 1269.27258902546 354.81383481604576Q1270.6863714462606 356.15808695385584 1270.9413158172247 358.2439954435611Q1271.173083427192 360.3299039332664 1270.1764827043326 362.8329941209127L1270.1764827043326 362.8329941209127L1227.461712187368 461.61234948895554Q1226.1174600495578 464.6253284185298 1224.5414403017808 465.7841664683661Q1222.9654205540032 466.9430045182024 1220.114678951406 466.9430045182024ZM1323.2512653868334 437.25357368139737L1323.2512653868334 437.25357368139737Q1310.388163033651 437.25357368139737 1301.1406353959574 432.1546862621178Q1291.8699309972671 427.078975603835 1286.7942203389844 417.715564161158Q1281.695332919705 408.3753294794777 1281.695332919705 395.37316656031487L1281.695332919705 395.37316656031487Q1281.695332919705 382.67230153410947 1286.7015132949978 373.262536569439Q1291.7076936702902 363.8295948437719 1300.4685093270523 358.47576305352834Q1309.2293249838144 353.14510802428157 1320.7481751991868 353.14510802428157L1320.7481751991868 353.14510802428157Q1328.929571831031 353.14510802428157 1335.4190649101138 355.90314258289186Q1341.9317347501938 358.66117714150215 1346.5207334275456 363.8295948437719Q1351.109732104897 368.9980125460416 1353.5432920095532 376.34504578200347Q1355.9536751532128 383.6920790179654 1355.9536751532128 392.87007637266856L1355.9536751532128 392.87007637266856Q1355.9536751532128 395.535403887292 1354.4471856884252 396.78694898111513Q1352.9406962236385 398.0384940749383 1350.1131313820379 398.0384940749383L1350.1131313820379 398.0384940749383L1292.0321683242446 398.0384940749383L1292.0321683242446 389.1849713741893L1346.9379151254866 389.1849713741893L1344.272587610863 391.3635869078814Q1344.272587610863 382.3478268801553 1341.6072600962398 376.09010141103954Q1338.9419325816161 369.8323759419237 1333.8430451623367 366.4949223583953Q1328.7441577430573 363.15746877486686 1321.0726498531412 363.15746877486686L1321.0726498531412 363.15746877486686Q1312.5667785673427 363.15746877486686 1306.6335277521812 367.0743413833134Q1300.7234536980163 370.99121399176 1297.710474768442 377.92106552978083Q1294.7206725998644 384.8509170678017 1294.7206725998644 394.02891442250484L1294.7206725998644 394.02891442250484L1294.7206725998644 395.025515145364Q1294.7206725998644 410.39170768619283 1302.1372361188164 418.387690230063Q1309.5537996377689 426.40684953492996 1323.2512653868334 426.40684953492996L1323.2512653868334 426.40684953492996Q1328.929571831031 426.40684953492996 1334.5151712312418 424.9003600701428Q1340.1007706314526 423.3938706053557 1345.4314256606995 419.89417969485015L1345.4314256606995 419.89417969485015Q1347.7722785213687 418.387690230063 1349.6959496840968 418.4803972740499Q1351.619620846825 418.54992755704006 1352.778458896661 419.63923532388617Q1353.9604737074942 420.7285430907323 1354.3776554054352 422.3045628385096Q1354.7948371033763 423.90375934728365 1354.0300039904846 425.7347234660249Q1353.2883476385891 427.56568758476624 1351.109732104897 428.90993972257627L1351.109732104897 428.90993972257627Q1345.616839748673 432.9195193750097 1338.107569185734 435.07495814770516Q1330.598298622795 437.25357368139737 1323.2512653868334 437.25357368139737ZM1382.3288291674858 436.90592226644645L1382.3288291674858 436.90592226644645Q1378.9913755839575 436.90592226644645 1377.2299417482063 435.07495814770516Q1375.4685079124552 433.24399402896387 1375.4685079124552 429.90654044543544L1375.4685079124552 429.90654044543544L1375.4685079124552 360.3299039332664Q1375.4685079124552 356.99245034973796 1377.1372347042193 355.23101651398684Q1378.8059614959839 353.4695826782357 1381.9811777525351 353.4695826782357L1381.9811777525351 353.4695826782357Q1385.1563940090864 353.4695826782357 1386.9178278448376 355.23101651398684Q1388.656084919592 356.99245034973796 1388.656084919592 360.3299039332664L1388.656084919592 360.3299039332664L1388.656084919592 373.84195559435716L1386.9873581278275 373.84195559435716Q1389.6526856424512 363.991832170749 1397.1619562053897 358.66117714150215Q1404.6712267683288 353.3073453512586 1415.7033650027702 352.98287069730446L1415.7033650027702 352.98287069730446Q1418.2064551904164 352.8206333703274 1419.6897678942069 354.07217846415057Q1421.196257358994 355.3237235579737 1421.358494685971 358.3135257265513L1421.358494685971 358.3135257265513Q1421.543908773945 361.1642673291485 1420.037419309158 362.8329941209127Q1418.5309298443703 364.50172091267694 1415.355713587819 364.82619556663104L1415.355713587819 364.82619556663104L1412.690386073196 365.1506702205852Q1401.3337731848005 366.17044770444113 1395.2614618036587 372.42817317355696Q1389.1659736615197 378.6858986426727 1389.1659736615197 389.53262278914013L1389.1659736615197 389.53262278914013L1389.1659736615197 429.90654044543544Q1389.1659736615197 433.24399402896387 1387.4045398257686 435.07495814770516Q1385.6662827510145 436.90592226644645 1382.3288291674858 436.90592226644645Z " fill="#8000ff" transform="matrix(0.615599433937083,0,0,0.6155994339370832,0,58.72009691670307)"/></g></svg>