<svg xmlns="http://www.w3.org/2000/svg" version="1.1" xmlns:xlink="http://www.w3.org/1999/xlink" xmlns:svgjs="http://svgjs.dev/svgjs" width="100%" height="100%" viewBox="0 0 1000 600"><rect width="1000" height="600" x="0" y="0" fill="black"/><g><circle r="166.66666666666666" cx="432.5035196940104" cy="454.725790915591" fill="#757374" transform="matrix(0.4702130660608796,0,0,0.4702130660608796,0,86.18197159457776)"/><path d="M427.67856080351396 529.7257975286936L427.67856080351396 529.7257975286936Q417.68802197412003 529.7257975286936 410.0248245765735 527.6822782226814Q402.361627179027 525.6387589166688 397.252828913996 521.7503957927286Q392.144030648965 517.8620326687884 389.58963151644946 512.5545589156729Q387.03523238393393 507.2470851625573 387.03523238393393 500.91785175643554L387.03523238393393 500.91785175643554Q387.03523238393393 496.83081314441074 388.76654735152783 493.76553418539214Q390.4978623191216 490.70025522637354 393.7618167662248 488.9689402587797Q397.0257712133279 487.20924307860236 401.7372185021899 487.20924307860236L401.7372185021899 487.20924307860236Q402.1345694783589 495.61037800332 405.001172949293 503.0465177001985Q407.8677764202271 510.5110396096605 413.79965885017975 515.1089580481884Q419.73154128013243 519.7068764867163 429.3247291333573 519.7068764867163L429.3247291333573 519.7068764867163Q443.004955598607 519.7068764867163 450.7816818464876 513.065438742176Q458.5584080943681 506.42400099763563 458.5584080943681 493.96420967347666L458.5584080943681 493.96420967347666Q458.5584080943681 486.41454112626417 455.57827577309996 481.1922140108992Q452.6265256644154 475.9698868955341 445.78641243179055 471.48549730734027Q438.9179169865822 467.0011077191464 426.88385885117583 462.0909849421999L426.88385885117583 462.0909849421999Q414.1970098263488 456.7835111890843 405.8242571142147 450.6529532710471Q397.4515044020805 444.5223953530099 393.3644657900557 436.2347892786263Q389.2774271780309 427.94718320424266 389.2774271780309 416.70782702117447L389.2774271780309 416.70782702117447Q389.2774271780309 405.0711198619372 395.09578075764955 396.78351378755355Q400.9141343372682 388.5242899257534 411.0465842295797 384.12504697531006Q421.1506519093077 379.72580402486665 434.0361764222192 379.72580402486665L434.0361764222192 379.72580402486665Q446.2972922582936 379.72580402486665 454.75519160817834 382.9897584719698Q463.2414731706465 386.28209513165643 467.7542449714239 391.476040034438Q472.23863455961776 396.698367149803 472.23863455961776 402.6302495797557L472.23863455961776 402.6302495797557Q472.23863455961776 409.158158473962 467.8393916091744 412.5356417713991Q463.440148658731 415.9131250688363 456.0891555996031 415.9131250688363L456.0891555996031 415.9131250688363Q456.0891555996031 409.555509450131 453.96048965584015 403.6520092327619Q451.8034414994937 397.7201268028092 446.80817208479675 393.8317636788689Q441.78452045751624 389.94340055492864 433.21309225729755 389.94340055492864L433.21309225729755 389.94340055492864Q421.34932739739224 389.94340055492864 414.82141850318595 396.2726339610504Q408.2651273963961 402.6302495797557 408.2651273963961 413.2451970859868L408.2651273963961 413.2451970859868Q408.2651273963961 421.41927431003637 411.2452597176642 427.0389524015705Q414.1970098263488 432.6586304931046 421.1506519093077 437.057873443548Q428.10429399226655 441.4571163939913 439.93967663958836 446.3388569583543L439.93967663958836 446.3388569583543Q452.0021169875783 451.2489797353008 460.48839855004644 457.0673333149194Q468.97468011251465 462.9140691071216 473.4590697007085 470.46373765433407Q477.97184150148587 478.01340620154656 477.97184150148587 488.65673592036114L477.97184150148587 488.65673592036114Q477.97184150148587 501.7409359213572 471.84128358344867 510.823243948079Q465.7107256654115 519.9055519748008 454.35784063200924 524.8156747517473Q443.004955598607 529.7257975286936 427.67856080351396 529.7257975286936Z " fill="black" transform="matrix(0.4702130660608796,0,0,0.4702130660608796,0,86.18197159457776)"/><path d="M721.2481231078089 529.7257976905512L721.2481231078089 529.7257976905512Q711.7243140033984 529.7257976905512 704.4191195199018 527.7777458282856Q697.1139250364051 525.8296939660197 692.2437953807407 522.1229841725417Q687.3736657250763 518.4162743790639 684.9386008972441 513.3567507923458Q682.5035360694119 508.29722720562785 682.5035360694119 502.2636776877769L682.5035360694119 502.2636776877769Q682.5035360694119 498.3675739632454 684.1539688971648 495.44549616984676Q685.8044017249179 492.5234183764481 688.9158734493701 490.87298554869517Q692.0273451738224 489.1954964450774 696.5186869673795 489.1954964450774L696.5186869673795 489.1954964450774Q696.8974748294868 497.2041541010589 699.6301586918318 504.2928983776371Q702.3628425541767 511.4086989300801 708.0176042099205 515.7918156201781Q713.6723658656641 520.1749323102761 722.8173871079673 520.1749323102761L722.8173871079673 520.1749323102761Q735.858512074802 520.1749323102761 743.2719316617579 513.8437637579123Q750.6853512487137 507.51259520554856 750.6853512487137 495.63489010090035L750.6853512487137 495.63489010090035Q750.6853512487137 488.43792072086296 747.8444422829094 483.4595659617393Q745.03058959297 478.4812112026157 738.5100271095527 474.20631961597695Q731.9624083502705 469.9314280293382 720.4905473835943 465.2506923047274L720.4905473835943 465.2506923047274Q708.3963920720278 460.19116871800935 700.4147906919111 454.34701313121207Q692.4331893117943 448.5028575444148 688.5370855872628 440.6024249918925Q684.6409818627312 432.70199243937026 684.6409818627312 421.9877071969085L684.6409818627312 421.9877071969085Q684.6409818627312 410.8946340923396 690.1875184150158 402.9942015398173Q695.7340549673002 395.1208252631599 705.3931454510346 390.9271025041155Q715.0251796589042 386.73337974507115 727.3087289015245 386.73337974507115L727.3087289015245 386.73337974507115Q738.997040075119 386.73337974507115 747.0598102828302 389.8448514695234Q755.149636766406 392.9833794698405 759.4515846289096 397.93467795309925Q763.7264762155484 402.9130327122229 763.7264762155484 408.5677943679666L763.7264762155484 408.5677943679666Q763.7264762155484 414.7907378168711 759.532753456504 418.0104346447826Q755.3390306974596 421.23013147269404 748.3314552484759 421.23013147269404L748.3314552484759 421.23013147269404Q748.3314552484759 415.16952567897835 746.3022345586157 409.54182029909947Q744.2459575928907 403.8870586433558 739.4840530406855 400.1803488498779Q734.6950922126155 396.4736390564 726.5240969014452 396.4736390564L726.5240969014452 396.4736390564Q715.2145735899578 396.4736390564 708.9916301410533 402.5071885742509Q702.741630416284 408.5677943679666 702.741630416284 418.68684154140266L702.741630416284 418.68684154140266Q702.741630416284 426.47904899046574 705.5825393820883 431.83619161169656Q708.3963920720278 437.19333423292744 715.0251796589042 441.38705699197175Q721.6539672457808 445.5807797510161 732.9364342814033 450.2344591997621L732.9364342814033 450.2344591997621Q744.4353515239443 454.9151949243729 752.5251780075203 460.46173147665735Q760.6150044910961 466.03532430480664 764.8898960777349 473.2322936848441Q769.1918439402384 480.42926306488147 769.1918439402384 490.57536651418235L769.1918439402384 490.57536651418235Q769.1918439402384 503.0483096878562 763.3476883534412 511.7063179645929Q757.5035327666438 520.3643262413296 746.6810224207229 525.0450619659405Q735.858512074802 529.7257976905512 721.2481231078089 529.7257976905512ZM825.8747418769992 529.7257976905512L825.8747418769992 529.7257976905512Q811.0749589789524 529.7257976905512 804.3379462886166 523.0158412760802Q797.6279898741457 516.2788285857446 797.6279898741457 499.5309938254319L797.6279898741457 499.5309938254319L797.6279898741457 434.46065037058236L782.8282069760988 434.46065037058236L782.8282069760988 426.66844292151933Q786.3184665626583 426.66844292151933 790.6204144251618 425.20740402482Q794.8953060118006 423.74636512812066 798.0067777362528 420.4454994726148L798.0067777362528 420.4454994726148Q801.3346996676236 416.9281836101905 803.4721454609429 411.86866002347244Q805.6095912542623 406.80913643675444 806.9624050475024 399.3957168497986L806.9624050475024 399.3957168497986L815.9450886346168 399.3957168497986L815.9450886346168 423.3675772660134L841.4591567751253 423.3675772660134L841.4591567751253 434.46065037058236L815.9450886346168 434.46065037058236L815.9450886346168 500.12623189445753Q815.9450886346168 510.05588513684 820.030586290202 514.7366208614508Q824.1160839457871 519.3903003101968 830.7448715326636 519.3903003101968L830.7448715326636 519.3903003101968Q834.2351311192232 519.3903003101968 837.1572089126217 519.0115124480895Q840.0792867060204 518.6327245859823 843.2178147063374 518.0374865169567L843.2178147063374 518.0374865169567L843.2178147063374 526.6143259660989Q840.674524775046 527.7777458282856 835.615001188328 528.7517717594184Q830.55547760161 529.7257976905512 825.8747418769992 529.7257976905512ZM900.8747385742312 529.7257976905512L900.8747385742312 529.7257976905512Q885.4797176071587 529.7257976905512 877.09227208907 520.6619452758425Q868.731882846846 511.5980928611337 868.731882846846 491.5493924453152L868.731882846846 491.5493924453152L868.731882846846 444.7961477509369Q868.731882846846 438.95199216413954 866.4862119500675 436.11108319833534Q864.2405410532889 433.2972305083959 860.6420563632702 432.4314296807222Q857.0435716732514 431.53857257718374 852.7416238107479 431.53857257718374L852.7416238107479 431.53857257718374L852.173442017587 431.53857257718374L852.173442017587 423.3675772660134L887.0489816073172 423.3675772660134L887.0489816073172 490.57536651418235Q887.0489816073172 498.93575575640625 888.8888083661237 504.99636155012195Q890.7286351249303 511.0299110679729 895.2199769184875 514.1413827924251Q899.7113187120447 517.2528545168774 907.5035261611077 517.2528545168774L907.5035261611077 517.2528545168774Q916.0533093343853 517.2528545168774 921.5186770590753 513.2755819647514Q926.9840447837654 509.27125313676066 929.500278439192 502.15545258431774Q932.0435683704834 495.0396520318747 932.0435683704834 485.70523685851794L932.0435683704834 485.70523685851794L932.0435683704834 445.5807797510161Q932.0435683704834 439.3307800262468 929.9061225771641 436.40870223284816Q927.7416205079799 433.4866244394495 924.1431358179611 432.5125985083166Q920.5446511279424 431.53857257718374 916.0533093343853 431.53857257718374L916.0533093343853 431.53857257718374L915.4851275412244 431.53857257718374L915.4851275412244 423.3675772660134L950.3606671309545 423.3675772660134L950.3606671309545 506.5385692744157Q950.3606671309545 512.1933309301594 952.5792817518684 515.0071836200989Q954.8249526486469 517.848092585903 958.4234373386656 518.7138934135767Q962.0489783045492 519.6067505171152 966.3238698911879 519.6067505171152L966.3238698911879 519.6067505171152L966.9191079602136 519.6067505171152L966.9191079602136 527.7777458282856L935.9396720950149 527.7777458282856L933.3963821637235 512.0039369991057L932.4223562325907 512.0039369991057Q926.3888067147398 522.9076161726211 918.4072053346231 526.3167069315862Q910.4256039545064 529.7257976905512 900.8747385742312 529.7257976905512ZM1021.8433479657623 529.7257976905512L1021.8433479657623 529.7257976905512Q1002.5522232741582 529.7257976905512 992.3249509972629 516.765841551311Q982.0976787203676 503.80588541207067 982.0976787203676 475.77558361613546L982.0976787203676 475.77558361613546Q982.0976787203676 447.52883161328185 992.3249509972629 434.46065037058236Q1002.5522232741582 421.4195254037477 1021.8433479657623 421.4195254037477L1021.8433479657623 421.4195254037477Q1033.1528712772497 421.4195254037477 1040.2416155538276 426.18142995595286Q1047.3574161062706 430.97039078402287 1051.6593639687744 438.54614802616754L1051.6593639687744 438.54614802616754L1052.8227838309608 438.54614802616754Q1052.2275457619353 433.67601837050313 1051.9299267274223 427.75069395611143Q1051.6593639687744 421.7983132658549 1051.6593639687744 417.1175775412441L1051.6593639687744 417.1175775412441L1051.6593639687744 401.1543747810108Q1051.6593639687744 395.31021919421346 1049.4136930719956 392.496366504274Q1047.1680221752172 389.6554575384698 1043.5695374851985 388.7896567107961Q1039.9710527951797 387.89679960725766 1035.6691049326764 387.89679960725766L1035.6691049326764 387.89679960725766L1034.1268972083824 387.89679960725766L1034.1268972083824 379.72580429608735L1069.9494064533806 379.72580429608735L1069.9494064533806 506.34917534336205Q1069.9494064533806 512.0039369991057 1072.1950773501594 514.9260147925045Q1074.4407482469378 517.848092585903 1078.0392329369565 518.7138934135767Q1081.6377176269752 519.6067505171152 1085.9396654894788 519.6067505171152L1085.9396654894788 519.6067505171152L1087.4818732137724 519.6067505171152L1087.4818732137724 527.7777458282856L1054.581441762173 527.7777458282856L1052.4169396929888 510.2452790678936L1051.6593639687744 510.2452790678936Q1047.3574161062706 519.2009063791431 1040.3498406572871 524.4768801727796Q1033.3422652083032 529.7257976905512 1021.8433479657623 529.7257976905512ZM1025.1442136212681 517.2528545168774L1025.1442136212681 517.2528545168774Q1040.3498406572871 517.2528545168774 1046.0046023130308 507.02558223998216Q1051.6593639687744 496.79830996308687 1051.6593639687744 475.77558361613546L1051.6593639687744 475.77558361613546Q1051.6593639687744 455.5104329933986 1046.0046023130308 444.68792264747765Q1040.3498406572871 433.89246857742154 1024.9548196902147 433.89246857742154L1024.9548196902147 433.89246857742154Q1012.1030886544335 433.89246857742154 1006.5565521021489 444.68792264747765Q1001.0100155498645 455.5104329933986 1001.0100155498645 475.9649775471891L1001.0100155498645 475.9649775471891Q1001.0100155498645 496.6089160320333 1006.5565521021489 506.94441341238775Q1012.1030886544335 517.2528545168774 1025.1442136212681 517.2528545168774ZM1150.79355873741 527.7777458282856L1095.490530869754 527.7777458282856L1095.490530869754 519.6067505171152L1098.0067645251806 519.6067505171152Q1102.3087123876844 519.6067505171152 1105.907197077703 518.7138934135767Q1109.5056817677216 517.848092585903 1111.7513526645002 515.0071836200989Q1113.9970235612786 512.1933309301594 1113.9970235612786 506.5385692744157L1113.9970235612786 506.5385692744157L1113.9970235612786 444.7961477509369Q1113.9970235612786 438.95199216413954 1111.7513526645002 436.11108319833534Q1109.5056817677216 433.2972305083959 1105.907197077703 432.4314296807222Q1102.3087123876844 431.53857257718374 1098.0067645251806 431.53857257718374L1098.0067645251806 431.53857257718374L1097.4385827320198 431.53857257718374L1097.4385827320198 423.3675772660134L1132.2870660458852 423.3675772660134L1132.2870660458852 505.5645433432828Q1132.2870660458852 511.5980928611337 1134.4515681150692 514.6283957579915Q1136.5890139083886 517.6586986548493 1140.2957237018668 518.6327245859823Q1143.97537721948 519.6067505171152 1148.2773250819832 519.6067505171152L1148.2773250819832 519.6067505171152L1150.79355873741 519.6067505171152L1150.79355873741 527.7777458282856ZM1122.3574128035027 403.8870586433558L1122.3574128035027 403.8870586433558Q1117.676677078892 403.8870586433558 1114.484036526845 401.1543747810108Q1111.2643396989338 398.4216909186657 1111.2643396989338 391.79290333178915L1111.2643396989338 391.79290333178915Q1111.2643396989338 384.974721813859 1114.484036526845 382.3502630549732Q1117.676677078892 379.72580429608735 1122.3574128035027 379.72580429608735L1122.3574128035027 379.72580429608735Q1126.8487545970597 379.72580429608735 1130.149620252566 382.3502630549732Q1133.4775421839363 384.974721813859 1133.4775421839363 391.79290333178915L1133.4775421839363 391.79290333178915Q1133.4775421839363 398.4216909186657 1130.149620252566 401.1543747810108Q1126.8487545970597 403.8870586433558 1122.3574128035027 403.8870586433558ZM1209.235114605383 529.7257976905512L1209.235114605383 529.7257976905512Q1188.2123882584315 529.7257976905512 1176.1182329468647 516.2788285857446Q1164.051133911163 502.8318594809378 1164.051133911163 475.3697394781634L1164.051133911163 475.3697394781634Q1164.051133911163 448.0970134064427 1175.6312199812983 434.7582694050952Q1187.2383623272985 421.4195254037477 1209.8303526744085 421.4195254037477L1209.8303526744085 421.4195254037477Q1230.8801352972246 421.4195254037477 1242.9472343329267 434.7582694050952Q1255.0143333686283 448.0970134064427 1255.0143333686283 475.3697394781634L1255.0143333686283 475.3697394781634Q1255.0143333686283 502.8318594809378 1243.4342472984931 516.2788285857446Q1231.8541612283575 529.7257976905512 1209.235114605383 529.7257976905512ZM1209.640958743355 519.6067505171152L1209.640958743355 519.6067505171152Q1219.3812180546838 519.6067505171152 1225.225373641481 514.6283957579915Q1231.0695292282785 509.65004099886795 1233.5857628837048 499.72038775648554Q1236.1290528149964 489.79073451410306 1236.1290528149964 475.3697394781634L1236.1290528149964 475.3697394781634Q1236.1290528149964 453.5623811311328 1230.0955032971456 442.6587019576175Q1224.0619537792945 431.72796650823733 1209.4515648123013 431.72796650823733L1209.4515648123013 431.72796650823733Q1194.841175845308 431.72796650823733 1188.8887951550514 442.6587019576175Q1182.9364144647952 453.5623811311328 1182.9364144647952 475.3697394781634L1182.9364144647952 475.3697394781634Q1182.9364144647952 497.2041541010589 1188.997020258511 508.405452309087Q1195.0305697763615 519.6067505171152 1209.640958743355 519.6067505171152ZM1364.5110817934833 529.7257976905512L1364.5110817934833 529.7257976905512Q1354.960216413208 529.7257976905512 1347.6550219297114 527.7777458282856Q1340.349827446215 525.8296939660197 1335.4796977905503 522.1229841725417Q1330.609568134886 518.4162743790639 1328.1745033070538 513.3567507923458Q1325.7394384792215 508.29722720562785 1325.7394384792215 502.2636776877769L1325.7394384792215 502.2636776877769Q1325.7394384792215 498.3675739632454 1327.3898713069743 495.44549616984676Q1329.0403041347272 492.5234183764481 1332.1788321350446 490.87298554869517Q1335.2903038594968 489.1954964450774 1339.754589377189 489.1954964450774L1339.754589377189 489.1954964450774Q1340.160433515161 497.2041541010589 1342.8931173775059 504.2928983776371Q1345.598744963986 511.4086989300801 1351.2535066197302 515.7918156201781Q1356.9082682754738 520.1749323102761 1366.053289517777 520.1749323102761L1366.053289517777 520.1749323102761Q1379.1214707604763 520.1749323102761 1386.5078340715672 513.8437637579123Q1393.9212536585233 507.51259520554856 1393.9212536585233 495.63489010090035L1393.9212536585233 495.63489010090035Q1393.9212536585233 488.43792072086296 1391.107400968584 483.4595659617393Q1388.2664920027796 478.4812112026157 1381.745929519362 474.20631961597695Q1375.225367035945 469.9314280293382 1363.7264497934038 465.2506923047274L1363.7264497934038 465.2506923047274Q1351.6593507577022 460.19116871800935 1343.6506931017207 454.34701313121207Q1335.6690917216042 448.5028575444148 1331.7729879970725 440.6024249918925Q1327.8768842725408 432.70199243937026 1327.8768842725408 421.9877071969085L1327.8768842725408 421.9877071969085Q1327.8768842725408 410.8946340923396 1333.4234208248254 402.9942015398173Q1338.9970136529746 395.1208252631599 1348.6290478608444 390.9271025041155Q1358.2610820687137 386.73337974507115 1370.544631311334 386.73337974507115L1370.544631311334 386.73337974507115Q1382.2329424849286 386.73337974507115 1390.3227689685045 389.8448514695234Q1398.4125954520805 392.9833794698405 1402.6874870387192 397.93467795309925Q1406.9623786253578 402.9130327122229 1406.9623786253578 408.5677943679666L1406.9623786253578 408.5677943679666Q1406.9623786253578 414.7907378168711 1402.7957121421787 418.0104346447826Q1398.601989383134 421.23013147269404 1391.5944139341505 421.23013147269404L1391.5944139341505 421.23013147269404Q1391.5944139341505 415.16952567897835 1389.538136968425 409.54182029909947Q1387.4818600027002 403.8870586433558 1382.719955450495 400.1803488498779Q1377.95805089829 396.4736390564 1369.759999311255 396.4736390564L1369.759999311255 396.4736390564Q1358.4775322756323 396.4736390564 1352.227532550863 402.5071885742509Q1346.0045891019586 408.5677943679666 1346.0045891019586 418.68684154140266L1346.0045891019586 418.68684154140266Q1346.0045891019586 426.47904899046574 1348.8184417918978 431.83619161169656Q1351.6593507577022 437.19333423292744 1358.2610820687137 441.38705699197175Q1364.8898696555902 445.5807797510161 1376.199392967078 450.2344591997621L1376.199392967078 450.2344591997621Q1387.6983102096187 454.9151949243729 1395.7610804173296 460.46173147665735Q1403.8509069009056 466.03532430480664 1408.1528547634093 473.2322936848441Q1412.427746350048 480.42926306488147 1412.427746350048 490.57536651418235L1412.427746350048 490.57536651418235Q1412.427746350048 503.0483096878562 1406.5835907632509 511.7063179645929Q1400.7394351764533 520.3643262413296 1389.9169248305325 525.0450619659405Q1379.1214707604763 529.7257976905512 1364.5110817934833 529.7257976905512ZM1460.5338048376666 527.7777458282856L1435.019736697158 441.8740699575382Q1433.6669229039176 437.7885723019531 1431.8000398692466 435.54290140517446Q1429.9602131104398 433.2972305083959 1427.5251482826075 432.4314296807222Q1425.0900834547756 431.53857257718374 1421.1939797302439 431.53857257718374L1421.1939797302439 431.53857257718374L1420.5987416612184 431.53857257718374L1420.5987416612184 423.3675772660134L1468.7318564247016 423.3675772660134L1468.7318564247016 431.53857257718374L1466.1885664934102 431.53857257718374Q1460.3444109066127 431.53857257718374 1457.4223331132143 433.18900540493667Q1454.5002553198156 434.8664945085544 1454.5002553198156 439.7366241642188L1454.5002553198156 439.7366241642188Q1454.5002553198156 441.27883188851257 1454.987268285382 443.63272788875037Q1455.4742812509485 445.9595676131234 1456.069519319974 448.0970134064427L1456.069519319974 448.0970134064427L1465.2145405622773 480.8351072028535Q1466.5944106313823 485.5158429274643 1467.838999321163 491.2517734108024Q1469.110644286809 496.98770389414045 1470.2740641489954 502.15545258431774Q1471.4645402870465 507.3232012744949 1472.0327220802073 510.6240669300008L1472.0327220802073 510.6240669300008L1472.6279601492333 510.6240669300008Q1473.1961419423942 507.3232012744949 1474.4677869080397 502.64246554988415Q1475.7394318736851 497.9617298252734 1477.3898647014385 492.7128123075017Q1479.0402975291913 487.4638947897301 1480.6095615293498 482.78315906511926L1480.6095615293498 482.78315906511926L1500.8747121520869 423.9357590591743L1513.131205118842 423.9357590591743L1532.6117237414996 481.61973920293275Q1533.8021998795512 485.1099987894923 1535.046788569332 489.114327617483Q1536.3184335349774 493.09160016960897 1537.4818533971643 497.2041541010589Q1538.6723295352153 501.28965175664405 1539.6463554663483 504.77991134320354Q1540.6203813974812 508.29722720562785 1540.9991692595886 510.6240669300008L1540.9991692595886 510.6240669300008L1541.5944073286141 510.6240669300008Q1542.568433259747 505.7539372743364 1544.4082600185534 498.6651929977582Q1546.2480867773602 491.5493924453152 1549.170164570759 482.1879209960936L1549.170164570759 482.1879209960936L1558.9104238820873 450.82969726878775Q1559.6950558821668 448.28640733749637 1560.1820688477333 445.47255464755693Q1560.6690818132997 442.6587019576175 1560.6690818132997 441.0894379574589L1560.6690818132997 441.0894379574589Q1560.6690818132997 436.0299143707409 1557.4493849853884 433.7842434739623Q1554.2567444333417 431.53857257718374 1547.8173507775186 431.53857257718374L1547.8173507775186 431.53857257718374L1546.4645369842788 431.53857257718374L1546.4645369842788 423.3675772660134L1588.1312018160743 423.3675772660134L1588.1312018160743 431.53857257718374L1585.6149681606475 431.53857257718374Q1581.9082583671693 431.53857257718374 1579.364968435878 432.62082361177585Q1576.8487347804517 433.67601837050313 1574.9006829181858 437.0039403018738Q1572.95263105592 440.3048059573797 1571.004579193654 446.7441996132026L1571.004579193654 446.7441996132026L1545.8692989152528 527.7777458282856L1530.2848840171268 527.7777458282856L1503.6073960144317 446.33835547523057L1475.928825804739 527.7777458282856L1460.5338048376666 527.7777458282856ZM1644.245917959674 529.7257976905512L1644.245917959674 529.7257976905512Q1623.0067414058044 529.7257976905512 1611.0208111976967 515.7106467925837Q1599.0619372654542 501.6684396187513 1599.0619372654542 476.3437654092963L1599.0619372654542 476.3437654092963Q1599.0619372654542 449.0710393375756 1610.3444043010768 435.24528237066164Q1621.653927612564 421.4195254037477 1642.2978660974081 421.4195254037477L1642.2978660974081 421.4195254037477Q1661.1831466510403 421.4195254037477 1672.005656996961 433.10783657734225Q1682.828167342882 444.7961477509369 1682.828167342882 467.98337616707244L1682.828167342882 467.98337616707244L1682.828167342882 476.939003478322L1617.9472178190863 476.939003478322Q1618.3260056811932 498.1781800321918 1625.6312001646902 507.8102142400614Q1632.9363946481867 517.442248447931 1646.9786018220188 517.442248447931L1646.9786018220188 517.442248447931Q1657.097648995455 517.442248447931 1664.213449547898 513.2755819647514Q1671.3292501003411 509.0818592057071 1674.8195096869008 503.80588541207067L1674.8195096869008 503.80588541207067Q1676.1993797560058 504.4011234810963 1677.3627996181922 506.15978141230846Q1678.5262194803786 507.91843934352056 1678.5262194803786 510.43467299894724L1678.5262194803786 510.43467299894724Q1678.5262194803786 514.3307767234787 1674.8195096869008 518.822118517036Q1671.1398561692877 523.2864040347283 1663.5370426512782 526.5061008626399Q1655.9342291332687 529.7257976905512 1644.245917959674 529.7257976905512ZM1618.3260056811932 466.41411216691387L1663.1311985133061 466.41411216691387Q1663.1311985133061 450.82969726878775 1658.369293961101 441.38705699197175Q1653.6073894088959 431.94441671515574 1641.9190782353012 431.94441671515574L1641.9190782353012 431.94441671515574Q1631.2047929928394 431.94441671515574 1625.2524123025828 440.7918189229461Q1619.3000316123262 449.6662774066013 1618.3260056811932 466.41411216691387L1618.3260056811932 466.41411216691387ZM1748.4666925908923 529.7257976905512L1748.4666925908923 529.7257976905512Q1727.2275160370223 529.7257976905512 1715.241585828915 515.7106467925837Q1703.2827118966725 501.6684396187513 1703.2827118966725 476.3437654092963L1703.2827118966725 476.3437654092963Q1703.2827118966725 449.0710393375756 1714.565178932295 435.24528237066164Q1725.8747022437824 421.4195254037477 1746.518640728627 421.4195254037477L1746.518640728627 421.4195254037477Q1765.4039212822586 421.4195254037477 1776.2264316281794 433.10783657734225Q1787.0489419741007 444.7961477509369 1787.0489419741007 467.98337616707244L1787.0489419741007 467.98337616707244L1787.0489419741007 476.939003478322L1722.1679924503046 476.939003478322Q1722.546780312412 498.1781800321918 1729.8519747959085 507.8102142400614Q1737.157169279405 517.442248447931 1751.1993764532372 517.442248447931L1751.1993764532372 517.442248447931Q1761.3184236266734 517.442248447931 1768.4342241791164 513.2755819647514Q1775.5500247315595 509.0818592057071 1779.0402843181191 503.80588541207067L1779.0402843181191 503.80588541207067Q1780.420154387224 504.4011234810963 1781.5835742494105 506.15978141230846Q1782.746994111597 507.91843934352056 1782.746994111597 510.43467299894724L1782.746994111597 510.43467299894724Q1782.746994111597 514.3307767234787 1779.0402843181191 518.822118517036Q1775.360630800506 523.2864040347283 1767.7578172824965 526.5061008626399Q1760.155003764487 529.7257976905512 1748.4666925908923 529.7257976905512ZM1722.546780312412 466.41411216691387L1767.3519731445244 466.41411216691387Q1767.3519731445244 450.82969726878775 1762.5900685923193 441.38705699197175Q1757.8281640401142 431.94441671515574 1746.1398528665195 431.94441671515574L1746.1398528665195 431.94441671515574Q1735.4255676240577 431.94441671515574 1729.4731869338011 440.7918189229461Q1723.520806243545 449.6662774066013 1722.546780312412 466.41411216691387L1722.546780312412 466.41411216691387ZM1843.5424459798078 529.7257976905512L1843.5424459798078 529.7257976905512Q1828.7156068058962 529.7257976905512 1822.0056503914252 523.0158412760802Q1815.2956939769542 516.2788285857446 1815.2956939769542 499.5309938254319L1815.2956939769542 499.5309938254319L1815.2956939769542 434.46065037058236L1800.4688548030426 434.46065037058236L1800.4688548030426 426.66844292151933Q1803.9861706654665 426.66844292151933 1808.2610622521056 425.20740402482Q1812.563010114609 423.74636512812066 1815.6744818390612 420.4454994726148L1815.6744818390612 420.4454994726148Q1818.9753474945674 416.9281836101905 1821.1398495637513 411.86866002347244Q1823.2772953570707 406.80913643675444 1824.630109150311 399.3957168497986L1824.630109150311 399.3957168497986L1833.5857364615604 399.3957168497986L1833.5857364615604 423.3675772660134L1859.1268608779337 423.3675772660134L1859.1268608779337 434.46065037058236L1833.5857364615604 434.46065037058236L1833.5857364615604 500.12623189445753Q1833.5857364615604 510.05588513684 1837.6982903930102 514.7366208614508Q1841.7837880485954 519.3903003101968 1848.412575635472 519.3903003101968L1848.412575635472 519.3903003101968Q1851.9028352220316 519.3903003101968 1854.82491301543 519.0115124480895Q1857.7469908088287 518.6327245859823 1860.858462533281 518.0374865169567L1860.858462533281 518.0374865169567L1860.858462533281 526.6143259660989Q1858.3422288778543 527.7777458282856 1853.2827052911366 528.7517717594184Q1848.1961254285538 529.7257976905512 1843.5424459798078 529.7257976905512Z " fill="aliceblue" transform="matrix(0.4702130660608796,0,0,0.4702130660608796,0,86.18197159457776)"/></g></svg>